<?xml version="1.0" encoding="UTF-8"?>
<svg viewBox="0 0 517.5 360" xmlns="http://www.w3.org/2000/svg">
 <defs>
  <radialGradient id="a" cx="247.76" cy="644.91" r="273.3" gradientTransform="matrix(1.1876 0 0 .81234 14.321 -2.1429)" gradientUnits="userSpaceOnUse">
   <stop offset="0"/>
   <stop stop-color="#2d4f31" stop-opacity="0" offset="1"/>
  </radialGradient>
 </defs>
 <g transform="translate(-49.497 -341.43)">
  <path d="m54.385 458.44c109.96-65.113 458.09-110.56 458.09-110.56l12.573 48.169s-42.454 5.6854-34.786 36.325 44.874 17.312 44.874 17.312l9.8113 35.059s-38.416 1.8283-33.629 36.063 43.519 16.638 43.519 16.638l7.9176 43.336s-75.141 34.63-221.54 70.749c-115.23 28.411-238.07 44.078-238.07 44.078l-13.902-42.963s39.637-5.3445 32.147-34.039c-6.2866-24.084-41.813-11.844-41.813-11.844l-11.021-46.558s39.101-4.6863 31.157-33.333c-7.1763-25.88-39.667-12.812-39.667-12.812l-5.6555-55.621z" fill="url(#a)" fill-rule="evenodd"/>
  <path d="m64.765 461.4c99.136-56.634 412.99-96.161 412.99-96.161l11.336 41.896s-38.274 4.945-31.362 31.594 40.456 15.058 40.456 15.058l8.8455 30.494s-34.634 1.5902-30.318 31.367 39.235 14.471 39.235 14.471l7.1381 37.693s-67.744 30.121-199.73 61.536c-103.89 24.711-214.64 38.338-214.64 38.338l-12.533-37.368s35.735-4.6486 28.982-29.607c-5.6678-20.948-37.697-10.302-37.697-10.302l-9.9364-40.495s35.252-4.076 28.09-28.993c-6.4698-22.51-35.762-11.144-35.762-11.144l-5.0988-48.378z" fill="#91ff9e" fill-rule="evenodd" stroke="#000" stroke-linejoin="round" stroke-width="14.012"/>
  <path d="m136.65 528.85c2.283 4.6548 5.1778 8.4117 8.6845 11.271l7.4204 5.782c0.69662 0.59032 1.3978 1.2015 2.1036 1.8334 5.4519 4.9672 7.622 10.105 6.5104 15.414-0.45667 2.1086-1.212 3.6493-2.2661 4.6219 1.0052-2.7962 0.90584-5.3511-0.29816-7.6649-1.3928-2.5782-4.2287-5.3653-8.5078-8.3614-7.1663-4.4181-11.715-12.05-13.647-22.896m-4.7099 25.529c2.928 0.40876 5.2342-0.02937 6.9189-1.3144 1.5778-1.1743 2.5243-1.8396 2.8396-1.9958 0.38952-0.21605 0.83439-0.37871 1.3346-0.48797 2.8906-0.76223 5.7996-0.24018 8.7271 1.5662l0.30473 0.19549-2.5614-0.03022c-2.398 0.218-4.2681 0.95391-5.6101 2.2077-1.8619 1.6731-4.023 2.2761-6.4834 1.8089-1.4106-0.25968-3.2339-0.90964-5.4699-1.9499m4.6474-25.515c2.7563 10.622 1.8029 19.455-2.86 26.5-4.1446 7.0192-5.2236 12.277-3.2372 15.774 0.42306 0.73739 1.0818 1.5543 1.9764 2.4508-1.3454-0.36127-2.6723-1.338-3.9808-2.9302-3.4463-4.1824-3.6944-9.7182-0.74434-16.608 0.73788-1.8207 2.3111-4.9156 4.7198-9.2847 2.2131-4.0644 3.5313-7.6276 3.9544-10.69 0.21419-1.6189 0.27147-3.3565 0.17184-5.2127m29.651-8.9644c0.1628 7.3451 1.3021 14.062 3.4178 20.151 1.7267 4.9073 2.7338 7.9191 3.0213 9.0354l0.08193 0.37516c1.0665 4.4837-0.51663 9.6334-4.7493 15.449-1.1768 1.6108-1.8277 2.4299-1.9527 2.4572l0.59445-6.8772c0.17973-3.5767 0.17115-6.9157-0.02573-10.017-0.11928-1.5461-0.88753-4.0642-2.3048-7.5542-1.7296-4.1205-2.545-7.6546-2.4463-10.602 0.1577-3.8775 1.6122-8.0165 4.3634-12.417m7.0991 8.2104c-1.9903 0.0853-3.6723-0.61736-5.0459-2.108-1.401-1.6156-1.6036-3.1435-0.60795-4.5838 1.5586-2.2619 5.5792-3.2491 12.062-2.9616 6.0475 0.29527 10.697 3.1886 13.949 8.6798 1.6467 2.7412 2.7827 5.9432 3.4079 9.6061 1.7405 9.9702-0.56227 17.024-6.9084 21.161-1.953 1.2563-4.2614 2.2844-6.9254 3.0845-5.7448 1.6912-8.8778 2.9432-9.3991 3.7558-0.3584 0.55867 0.03999 1.0831 1.1952 1.5732-2.7224 0.33248-4.338-0.16632-4.8468-1.4964-0.41252-1.089 0.12916-2.4083 1.625-3.9578 0.53424-0.55338 2.3568-1.6065 5.4679-3.1593 4.97-2.4392 8.3882-5.0853 10.254-7.9385 2.0943-3.2087 2.9136-7.0561 2.4581-11.542-0.68557-6.139-3.532-10.474-8.5393-13.006-2.9979-1.5289-5.7982-2.0529-8.4008-1.5719-1.769 0.29899-2.5442 0.94869-2.3257 1.9491 0.21464 0.78294 1.0747 1.6214 2.5801 2.5155m49.573-12.922c-6.5876 1.8317-9.9274 5.8364-10.019 12.014-0.0398 2.0176 0.33844 4.2497 1.1347 6.6961l0.59863 3.3412c0.69559 7.185-1.0461 13.308-5.2252 18.37-1.1063 1.3334-2.3487 2.5437-3.7272 3.6308 3.194-7.7724 3.9415-16.648 2.2427-26.628l-0.43261-3.1809c-0.37699-5.726 1.4011-9.7828 5.3343-12.17 2.5509-1.5178 5.9156-2.2089 10.094-2.0733m12.005 20.175c-5.3586-0.13996-9.3931-2.316-12.103-6.5281-0.53375-0.8442-0.96783-1.732-1.3022-2.6635l-1.3274-3.3786c-1.9836-4.2834-4.6324-7.6136-7.9465-9.9907 4.9638 0.53195 8.8653 2.999 11.705 7.4013 0.58451 0.87685 1.0303 1.7184 1.3374 2.5248l0.71219 2.6613c1.6357 4.4904 4.6108 7.8149 8.9253 9.9734m-7.9406-21.063c7.7983-3.8865 13.712-3.1036 17.742 2.3489 1.3032 1.768 2.3541 4.1807 3.1528 7.238l1.3094 4.4962c2.6791 7.669 6.6223 13.926 11.829 18.772-7.5137-1.8093-12.916-6.3505-16.208-13.624-0.87729-1.8173-1.5272-3.7935-1.9497-5.9285l-0.54401-3.0911c-1.3722-5.6834-4.4235-9.0567-9.1539-10.12-1.8404-0.42783-3.8996-0.45853-6.1779-0.09208m-2.5014 23.343c3.594-4.5406 4.7375-9.7034 3.4305-15.489l0.19049-2.7274c0.67131-5.1252 3.2009-9.0403 7.5888-11.745-2.5572 4.489-3.5093 9.8284-2.8563 16.018l-0.05753 2.4364c-0.47059 4.6447-2.7513 8.1998-6.8421 10.665-0.45471 0.31767-0.93935 0.5982-1.4539 0.84157m51.897 4.3888c-5.2014-2.6199-8.2625-7.738-9.1832-15.354-0.09869-0.85186-0.28382-3.9995-0.55542-9.4429 0.01965-0.30996 0.02301-0.59457 0.01007-0.85381l-0.37866-6.5336c-0.31571-2.2456-1.3552-4.0057-3.1183-5.2803 1.0474-0.40336 2.45 0.1201 4.2079 1.5704 2.9155 2.5514 4.8197 6.3718 5.7127 11.461 0.31332 1.6348 0.37078 4.8977 0.17236 9.7886-0.17257 5.4094 0.35873 9.4422 1.5939 12.098 0.45947 0.90414 0.97236 1.7529 1.5387 2.5464m-20.842-35.147c1.149-4.1377 4.4316-6.4049 9.8476-6.8016 0.56011-0.03493 1.5344-0.073 2.9229-0.11424 2.9112-0.06795 4.5335-0.13835 4.867-0.21123 0.53279-0.15997 0.86698-0.42948 1.0026-0.80851 0.3761 0.92237-0.02807 1.9714-1.2125 3.1471-1.0776 1.0651-2.4129 1.7498-4.006 2.054-0.45853 0.10017-2.3772 0.21346-5.756 0.33986-3.6888 0.10684-6.244 0.90504-7.6656 2.3946m8.6001 39.982c1.0513-3.9854 4.0583-6.2142 9.0211-6.6866 0.46762-0.05845 1.634-0.11664 3.4993-0.1746 3.1196-0.1135 4.9602-0.38442 5.5217-0.81276 0.23188-0.13798 0.3876-0.32484 0.46716-0.56058 0.41778 0.91324 0.039 1.9786-1.1363 3.196-1.0359 1.056-2.3667 1.7615-3.9924 2.1165-0.45854 0.10013-2.3727 0.23427-5.7424 0.40239-3.6797 0.14849-6.2258 0.98837-7.6383 2.5196m35.701-8.5168c0.63058-4.1119-0.59904-9.5426-3.6888-16.292l-4.463-9.6377c-0.29801-0.76465-0.56151-1.4714-0.79053-2.1202-1.4598-4.4851-1.6304-8.4657-0.51155-11.942 0.62721-1.9275 1.471-2.9633 2.5313-3.1076-1.1092 2.1202-0.30049 6.2234 2.4261 12.31l0.46858 0.94581 4.2991 8.8874c3.1664 7.3006 3.572 13.457 1.2165 18.47-0.42885 0.83608-0.92476 1.665-1.4877 2.4867m4.3314-43.461c-2.6999-0.7642-6.2086 0.06752-10.526 2.4952-3.7794 2.0919-5.7479 3.1768-5.9056 3.2549-0.35695 0.16534-0.67677 0.30069-0.95946 0.40605-2.8686 1.0632-5.4391 0.99128-7.7116-0.21572-1.1408-0.62428-1.7768-1.337-1.9081-2.1381 1.5002 1.07 4.2513 0.46917 8.2535-1.8024l5.6281-3.3253c4.8033-2.4027 8.9374-2.17 12.402 0.69802 0.25392 0.16296 0.49612 0.3721 0.72659 0.62743m68.035-13.023c-6.1008-0.93864-11.706 0.59114-16.816 4.5894-3.9217 3.0401-6.4851 6.7006-7.6902 10.982-0.8203 2.8432-0.83686 5.4671-0.04969 7.8718 1.8254 5.7592 5.2197 9.6035 10.183 11.533 3.9604 1.5371 8.6183 1.5681 13.974 0.0929 5.7213-1.5988 8.7717-4.9289 9.1512-9.9904 0.32056-4.1315-1.0085-8.3176-3.9871-12.558-2.4033-3.4056-5.0447-5.602-7.9242-6.5891-1.7517-0.62189-3.2516-0.49087-4.4997 0.39306-0.98368 0.69524-1.0881 1.4168-0.31338 2.1647 0.9635 1.0124 1.9201 1.3931 2.8697 1.142 0.58357-0.1274 0.83512-0.57538 0.75465-1.3439 0.78238 1.183 0.54305 2.0869-0.71801 2.7116s-2.5545 0.60155-3.8802-0.06976c-1.1825-0.61518-1.8152-1.6125-1.898-2.992-0.13223-1.8053 0.82174-3.2364 2.8619-4.2934 2.5782-1.3927 5.4803-1.5024 8.7062-0.32904 3.4526 1.2113 6.2202 3.6858 8.303 7.4235 6.4043 11.528 6.3153 20.02-0.26698 25.476-2.1863 1.7876-5.0609 3.2233-8.6236 4.307-6.2776 1.8513-12.152 1.6492-17.623-0.60609-6.9636-2.8902-11.414-8.4692-13.35-16.737l-0.15019-0.68779c-1.2145-5.7615 0.27685-11.131 4.4741-16.109 3.5001-4.1707 7.8652-6.98 13.095-8.4279s9.4652-0.95329 12.705 1.4836c0.26301 0.20464 0.50066 0.39294 0.71293 0.5649m17.887-9.4089c-1.7154 7.1438-0.91148 13.825 2.4117 20.043l1.3942 2.1848 1.4057 2.8374c2.7396 6.3456 2.6319 12.352-0.32294 18.02-0.35456 0.77618-0.78076 1.5243-1.2786 2.2445 0.59134-7.2914-1.1351-14.797-5.1793-22.517l-1.4136-2.5737c-2.5886-5.8545-2.3248-11.546 0.79151-17.074 0.60084-1.0483 1.3313-2.1031 2.1913-3.1644m22.009-4.8063c-1.7154 7.1438-0.9115 13.825 2.4117 20.043l1.3942 2.1848 1.4057 2.8374c2.7396 6.3456 2.6319 12.352-0.32294 18.02-0.35458 0.7762-0.78078 1.5244-1.2786 2.2445 0.59133-7.2914-1.1351-14.797-5.1793-22.517l-1.4136-2.5737c-2.5887-5.8545-2.3248-11.546 0.79152-17.074 0.64251-1.0574 1.373-2.1122 2.1913-3.1644m-22.561 5.5818c2.0477 6.9771 6.0589 12.346 12.034 16.108 0.71101 0.45617 1.6233 0.93388 2.7368 1.4331l2.2718 1.4036c5.3729 3.8053 8.4419 8.6597 9.207 14.563 0.17532 1.4029 0.20931 2.8585 0.10199 4.3668-3.224-6.7639-8.5968-12.469-16.119-17.115l-2.1819-1.2922c-5.0734-3.434-7.8377-8.0928-8.2928-13.977-0.16479-1.7545-0.08403-3.5846 0.24228-5.4901m33.004-8.0588c-0.70629 4.5652 0.01042 9.1471 2.1501 13.746l4.1 8.2758c0.87198 1.9932 1.492 3.9322 1.8599 5.8171 1.2274 6.0208 0.46891 10.947-2.2756 14.778-1.2654 1.8049-2.6185 2.9083-4.0592 3.3102l0.50096-2.2057c0.59801-4.0611 0.24496-9.3775-1.0591-15.949-0.37704-1.9266-1.4618-4.5939-3.2541-8.002-1.6544-3.1761-2.4427-5.8863-2.3651-8.1306 0.03503-3.2393 1.5024-7.1191 4.4022-11.639m-0.30689 0.39456c2.6831 0.28756 5.0538-0.05546 7.1122-1.0291 1.2285-0.57393 2.8472-1.5607 4.8562-2.9602 2.9601-2.0439 6.8942-1.5273 11.802 1.5497l1.9182 1.2843-4.4645 0.25435c-3.4584 0.36223-5.8976 1.0914-7.3178 2.1876-2.2136 1.6626-4.4835 2.2675-6.8096 1.8146-1.8729-0.37705-4.2386-1.4108-7.097-3.1012m3.9174 16.439c2.6088 0.34744 5.0955-0.06458 7.46-1.236 0.9458-0.46854 2.0727-1.1077 3.3808-1.9174 2.6486-1.6702 5.8859-1.0451 9.7117 1.8752l1.2735 1.0321-4.103 0.1099c-2.7315 0.29083-4.6842 0.84827-5.8581 1.6723-2.0416 1.4503-4.2111 1.8149-6.5085 1.0938-1.447-0.42641-3.2324-1.303-5.3564-2.6298m2.0322 21.305c3.1038 0.41402 5.9884 0.02428 8.6538-1.1692 1.5112-0.67937 3.5865-1.875 6.2261-3.5869 3.558-2.3055 8.0815-1.5901 13.57 2.1462 1.0756 0.7259 1.9663 1.4048 2.6721 2.0368l-4.6636-0.35725c-4.8076-0.21663-8.1742 0.36571-10.1 1.747-2.5289 1.8188-4.7051 2.7525-6.5286 2.8014-2.5504 0.12023-5.8272-1.0858-9.8302-3.618"/>
  <path d="m72.846 465.44c99.136-56.634 399.35-92.625 399.35-92.625l7.8 28.764-33.18-10.039c-63.784-19.298-181.5 127.53-317.96 119.28-23.376-1.4522-26.664-14.802-52.429-11.144l-3.5835-34.236z" fill="#fff" fill-opacity=".5815" fill-rule="evenodd"/>
 </g>
</svg>
